<svg width="1195" height="600" viewBox="0 0 1195 600" fill="none" xmlns="http://www.w3.org/2000/svg">
<path d="M60.0283 268L0.814453 91H26.8787L81.2846 254.346H68.126L124.556 91H147.837L203.002 254.346H190.349L245.515 91H269.554L210.34 268H183.77L132.148 116.539H138.98L87.1048 268H60.0283Z" fill="white"/>
<path d="M323.537 167.363H414.635V188.856H323.537V167.363ZM325.815 246.001H429.059V268H300.51V91H425.517V112.999H325.815V246.001Z" fill="white"/>
<path d="M470.034 268V91H549.492C569.904 91 585.594 95.13 596.559 103.39C607.525 111.481 613.007 122.607 613.007 136.767C613.007 146.376 610.814 154.467 606.428 161.041C602.211 167.616 596.475 172.673 589.221 176.213C581.967 179.753 574.122 181.523 565.687 181.523L570.242 173.937C580.364 173.937 589.305 175.707 597.065 179.247C604.825 182.787 610.983 188.013 615.538 194.924C620.093 201.667 622.37 210.096 622.37 220.21C622.37 235.381 616.634 247.181 605.163 255.61C593.86 263.87 576.99 268 554.553 268H470.034ZM495.339 247.519H553.541C567.543 247.519 578.255 245.159 585.678 240.439C593.101 235.719 596.812 228.301 596.812 218.187C596.812 207.904 593.101 200.403 585.678 195.683C578.255 190.963 567.543 188.603 553.541 188.603H493.061V168.121H547.214C560.035 168.121 569.989 165.761 577.074 161.041C584.16 156.321 587.702 149.241 587.702 139.801C587.702 130.361 584.16 123.281 577.074 118.561C569.989 113.841 560.035 111.481 547.214 111.481H495.339V247.519Z" fill="white"/>
<path d="M896.045 167.363H987.143V188.856H896.045V167.363ZM898.323 246.001H1001.57V268H873.017V91H998.025V112.999H898.323V246.001Z" fill="white"/>
<path d="M1091.19 268L1013.25 91H1040.58L1112.19 254.346H1096.5L1168.62 91H1193.93L1116.24 268H1091.19Z" fill="white"/>
<path d="M728.062 104.658L821.721 175.877L728.062 247.096" stroke="#1CD679" stroke-width="27" stroke-linecap="square"/>
<path d="M54.8945 91H88.7708L148.553 266.609H114.676L54.8945 91Z" fill="#1CD679"/>
<rect x="385" y="494" width="11.3571" height="26.4999" fill="white"/>
<rect x="396.357" y="494" width="22.7142" height="11.3571" fill="white"/>
<rect x="400.145" y="588.643" width="45.4283" height="11.3571" fill="white"/>
<rect x="419.076" y="494" width="11.3571" height="105.999" fill="white"/>
<rect x="498.576" y="588.643" width="60.5711" height="11.3571" fill="white"/>
<rect x="498.576" y="539.429" width="60.5711" height="11.3571" fill="white"/>
<rect x="498.576" y="494" width="60.5711" height="11.3571" fill="white"/>
<rect x="547.789" y="494" width="11.3571" height="105.999" fill="white"/>
<rect x="612.141" y="588.643" width="60.5711" height="11.3571" fill="white"/>
<rect x="612.141" y="539.429" width="60.5711" height="11.3571" fill="white"/>
<rect x="612.141" y="494" width="60.5711" height="11.3571" fill="white"/>
<rect x="661.354" y="494" width="11.3571" height="105.999" fill="white"/>
<rect x="725.709" y="494" width="11.3571" height="34.0713" fill="white"/>
<rect x="725.709" y="494" width="60.5711" height="11.3571" fill="white"/>
<rect x="774.922" y="494" width="11.3571" height="105.999" fill="white"/>
</svg>
